<svg width="12" height="19" viewBox="0 0 12 19" fill="none" xmlns="http://www.w3.org/2000/svg">
<path id="Arrow 2" d="M6.75 1C6.75 0.585786 6.41421 0.25 6 0.25C5.58579 0.25 5.25 0.585786 5.25 1H6.75ZM5.46967 18.5303C5.76256 18.8232 6.23744 18.8232 6.53033 18.5303L11.3033 13.7574C11.5962 13.4645 11.5962 12.9896 11.3033 12.6967C11.0104 12.4038 10.5355 12.4038 10.2426 12.6967L6 16.9393L1.75736 12.6967C1.46447 12.4038 0.989593 12.4038 0.696699 12.6967C0.403806 12.9896 0.403806 13.4645 0.696699 13.7574L5.46967 18.5303ZM5.25 1L5.25 18H6.75L6.75 1H5.25Z" fill="white"/>
</svg>
