<?xml version="1.0" encoding="utf-8"?>
<!-- Generator: Adobe Illustrator 28.0.0, SVG Export Plug-In . SVG Version: 6.00 Build 0)  -->
<svg version="1.1" id="Layer_1" xmlns="http://www.w3.org/2000/svg" xmlns:xlink="http://www.w3.org/1999/xlink" x="0px" y="0px"
	 viewBox="0 0 29.1 50" style="enable-background:new 0 0 29.1 50;" xml:space="preserve">
<path id="Arrow_2" d="M16.6,2c0-1.1-0.9-2-2-2s-2,0.9-2,2H16.6z M13.1,49.4c0.8,0.8,2,0.8,2.8,0l12.5-12.5c0.8-0.8,0.8-2,0-2.8
	c-0.8-0.8-2-0.8-2.8,0L14.5,45.3L3.4,34.2c-0.8-0.8-2-0.8-2.8,0c-0.8,0.8-0.8,2,0,2.8L13.1,49.4z M12.5,2v46.2h3.9V2H12.5z"/>
</svg>
